<svg id="Layer_1" data-name="Layer 1" xmlns="http://www.w3.org/2000/svg" viewBox="0 0 612.25 817.19"><defs><style>.cls-1{fill:#fff;}</style></defs><g id="_0vvmEM.tif" data-name="0vvmEM.tif"><path class="cls-1" d="M2704.72,102.64v13q0,218.73,0,437.47c0,67.68-43.45,111.07-111.16,111.08q-196.83,0-393.65,0c-51.61,0-91.83-30-103.92-77.61a112.63,112.63,0,0,1-3.34-27.31q-.27-303.36-.09-606.72c0-59.73,44-104.75,103.78-105.2,81.92-.61,163.84-.15,245.77-.13,2,0,4.08.32,7.25.58v13q0,92.07,0,184.14c0,39.4,18.59,57.77,58.14,57.79q92,0,184.06,0ZM2398.31,562.53c50.35,0,100.7.09,151.05,0,19,0,28.84-10.48,28.11-29.4-.22-5.65-1.11-11.29-1.87-16.9-7.43-55-51.59-100.66-106.95-105-43.69-3.46-88-4.27-131.68-1.29-67.65,4.62-115.06,55.68-117.19,120.79-.74,22.73,8,31.87,30.67,31.88Q2324.37,562.58,2398.31,562.53ZM2296.22,255.38c-.15,55.73,46.27,102.49,102,102.71,55.34.23,102.62-46.73,102.84-102.12.22-55.22-46.79-102.46-102.25-102.74S2296.36,199.76,2296.22,255.38Z" transform="translate(-2092.47 153.01)"/><path class="cls-1" d="M2502-148,2700.52,50.33H2502Z" transform="translate(-2092.47 153.01)"/></g></svg>